<svg width="674" height="287" viewBox="0 0 674 287" fill="none" xmlns="http://www.w3.org/2000/svg" role="img" aria-labelledby="title desc">
  <title id="title">Device Hub logo</title>
  <desc id="desc">Compact Device Hub logo with a smartphone icon and connected nodes.</desc>

  <defs>
    <linearGradient id="blue" x1="35" y1="35" x2="250" y2="255" gradientUnits="userSpaceOnUse">
      <stop offset="0" stop-color="#0A7BFF"/>
      <stop offset="1" stop-color="#005BFF"/>
    </linearGradient>
    <linearGradient id="hubBlue" x1="265" y1="150" x2="490" y2="255" gradientUnits="userSpaceOnUse">
      <stop offset="0" stop-color="#2378FF"/>
      <stop offset="1" stop-color="#005BFF"/>
    </linearGradient>
  </defs>

  <g stroke="url(#blue)" stroke-linecap="round" stroke-linejoin="round">
    <rect x="86" y="24" width="132" height="238" rx="25" stroke-width="16"/>
    <path d="M143 48H158" stroke-width="14"/>
    <path d="M136 236H167" stroke-width="14"/>

    <path d="M52 145H113" stroke-width="15"/>
    <path d="M179 129L218 92" stroke-width="14"/>
    <path d="M179 161L218 199" stroke-width="14"/>
  </g>

  <g fill="url(#blue)">
    <circle cx="51" cy="145" r="22"/>
    <circle cx="151" cy="145" r="42"/>
    <circle cx="219" cy="91" r="22"/>
    <circle cx="219" cy="200" r="22"/>
  </g>

  <g fill="#fff">
    <circle cx="51" cy="145" r="8"/>
    <circle cx="151" cy="145" r="23"/>
    <circle cx="219" cy="91" r="8"/>
    <circle cx="219" cy="200" r="8"/>
  </g>

  <g font-family="Inter, Arial, Helvetica, sans-serif" font-weight="900" letter-spacing="-4">
    <text x="263" y="139" font-size="101" fill="#001E5D">Device</text>
    <text x="263" y="241" font-size="101" fill="url(#hubBlue)">Hub</text>
  </g>
</svg>
